<svg width="252" height="75" viewBox="0 0 252 75" fill="none" xmlns="http://www.w3.org/2000/svg">
<path d="M32.75 44.5312H38.75C38.4375 47.4062 37.6146 49.9792 36.2812 52.25C34.9479 54.5208 33.0625 56.3229 30.625 57.6562C28.1875 58.9688 25.1458 59.625 21.5 59.625C18.8333 59.625 16.4062 59.125 14.2188 58.125C12.0521 57.125 10.1875 55.7083 8.625 53.875C7.0625 52.0208 5.85417 49.8021 5 47.2188C4.16667 44.6146 3.75 41.7188 3.75 38.5312V34C3.75 30.8125 4.16667 27.9271 5 25.3438C5.85417 22.7396 7.07292 20.5104 8.65625 18.6562C10.2604 16.8021 12.1875 15.375 14.4375 14.375C16.6875 13.375 19.2188 12.875 22.0312 12.875C25.4688 12.875 28.375 13.5208 30.75 14.8125C33.125 16.1042 34.9688 17.8958 36.2812 20.1875C37.6146 22.4583 38.4375 25.0938 38.75 28.0938H32.75C32.4583 25.9688 31.9167 24.1458 31.125 22.625C30.3333 21.0833 29.2083 19.8958 27.75 19.0625C26.2917 18.2292 24.3854 17.8125 22.0312 17.8125C20.0104 17.8125 18.2292 18.1979 16.6875 18.9688C15.1667 19.7396 13.8854 20.8333 12.8438 22.25C11.8229 23.6667 11.0521 25.3646 10.5312 27.3438C10.0104 29.3229 9.75 31.5208 9.75 33.9375V38.5312C9.75 40.7604 9.97917 42.8542 10.4375 44.8125C10.9167 46.7708 11.6354 48.4896 12.5938 49.9688C13.5521 51.4479 14.7708 52.6146 16.25 53.4688C17.7292 54.3021 19.4792 54.7188 21.5 54.7188C24.0625 54.7188 26.1042 54.3125 27.625 53.5C29.1458 52.6875 30.2917 51.5208 31.0625 50C31.8542 48.4792 32.4167 46.6562 32.75 44.5312ZM61.0625 43.9062L73.0938 13.5H80.0312L63.9375 51.4062C63.4792 52.4688 62.9688 53.5 62.4062 54.5C61.8438 55.4792 61.1562 56.3542 60.3438 57.125C59.5312 57.8958 58.5208 58.5104 57.3125 58.9688C56.125 59.4271 54.6458 59.6562 52.875 59.6562C52.375 59.6562 51.7812 59.625 51.0938 59.5625C50.4062 59.5208 49.9583 59.4688 49.75 59.4062L49.9375 54.5938C50.1667 54.6354 50.6146 54.6771 51.2812 54.7188C51.9479 54.7396 52.4375 54.75 52.75 54.75C53.9375 54.75 54.875 54.5104 55.5625 54.0312C56.25 53.5521 56.8021 52.9479 57.2188 52.2188C57.6562 51.4688 58.0521 50.7083 58.4062 49.9375L61.0625 43.9062ZM50.8438 13.5L63.5 41.8438L65 47.4375L59.9375 47.8125L44.0938 13.5H50.8438ZM104.594 13.5V59H98.6562V13.5H104.594ZM119.219 13.5V18.4375H84.0625V13.5H119.219ZM160.719 13.5V59H154.719V18.4375H132.281V59H126.25V13.5H160.719Z" fill="black"/>
<circle cx="184.5" cy="26.5" r="10" transform="rotate(90 184.5 26.5)" fill="#F9FCFE" stroke="#177BC9" stroke-width="3"/>
<circle cx="184.5" cy="26.5" r="5.5" transform="rotate(90 184.5 26.5)" fill="#177BC9"/>
<circle cx="240.5" cy="26.5" r="10" transform="rotate(90 240.5 26.5)" fill="#F9FCFE" stroke="#595959" stroke-width="3"/>
<circle cx="240.5" cy="26.5" r="5.5" transform="rotate(90 240.5 26.5)" fill="#595959"/>
<circle cx="212.5" cy="26.5" r="10" transform="rotate(90 212.5 26.5)" fill="#F9FCFE" stroke="#B3B3B3" stroke-width="3"/>
<circle cx="212.5" cy="26.5" r="5.5" transform="rotate(90 212.5 26.5)" fill="#B3B3B3"/>
<line x1="226" y1="56.5" x2="252" y2="56.5" stroke="#BF2D2D" stroke-width="5"/>
<line x1="199" y1="56.5" x2="226" y2="56.5" stroke="#C2B73F" stroke-width="5"/>
<line x1="173" y1="56.5" x2="199" y2="56.5" stroke="#59C23F" stroke-width="5"/>
</svg>
